<svg width="1200" height="630" viewBox="0 0 1200 630" xmlns="http://www.w3.org/2000/svg" role="img" aria-label="Sistema de Gestion de Ventas">
  <defs>
    <linearGradient id="bg" x1="0" y1="0" x2="1" y2="1">
      <stop offset="0" stop-color="#0ea5e9"/>
      <stop offset="1" stop-color="#6366f1"/>
    </linearGradient>
    <radialGradient id="glow" cx="0.7" cy="0.25" r="0.8">
      <stop offset="0" stop-color="#ffffff" stop-opacity="0.2"/>
      <stop offset="1" stop-color="#ffffff" stop-opacity="0"/>
    </radialGradient>
    <pattern id="dots" width="44" height="44" patternUnits="userSpaceOnUse">
      <circle cx="3" cy="3" r="2.2" fill="#ffffff" fill-opacity="0.08"/>
    </pattern>
  </defs>
  <rect width="1200" height="630" fill="url(#bg)"/>
  <rect width="1200" height="630" fill="url(#dots)"/>
  <rect width="1200" height="630" fill="url(#glow)"/>
  <circle cx="1050" cy="120" r="160" fill="#ffffff" fill-opacity="0.06"/>
  <circle cx="150" cy="560" r="180" fill="#ffffff" fill-opacity="0.05"/>
  <circle cx="600" cy="315" r="250" fill="none" stroke="#ffffff" stroke-opacity="0.06" stroke-width="2"/>
  <circle cx="600" cy="315" r="190" fill="none" stroke="#ffffff" stroke-opacity="0.10" stroke-width="2"/>
  <rect x="490" y="205" width="220" height="220" rx="52" fill="#ffffff" fill-opacity="0.13" stroke="#ffffff" stroke-opacity="0.16" stroke-width="2"/>
  <g transform="translate(600,315)" stroke="#ffffff" stroke-width="9" fill="none" stroke-linecap="round" stroke-linejoin="round">
    <path d="M-38 -48 h76 v96 l-13 -11 -12 11 -12 -11 -12 11 -15 -11 z"/>
    <path d="M-20 -22 h40 M-20 0 h40 M-20 22 h22"/>
  </g>
</svg>
