<svg width="1200" height="630" viewBox="0 0 1200 630" xmlns="http://www.w3.org/2000/svg" role="img" aria-label="Sistema de Gestion de Eventos">
  <defs>
    <linearGradient id="bg" x1="0" y1="0" x2="1" y2="1">
      <stop offset="0" stop-color="#7c3aed"/>
      <stop offset="1" stop-color="#db2777"/>
    </linearGradient>
    <radialGradient id="glow" cx="0.7" cy="0.25" r="0.8">
      <stop offset="0" stop-color="#ffffff" stop-opacity="0.2"/>
      <stop offset="1" stop-color="#ffffff" stop-opacity="0"/>
    </radialGradient>
    <pattern id="dots" width="44" height="44" patternUnits="userSpaceOnUse">
      <circle cx="3" cy="3" r="2.2" fill="#ffffff" fill-opacity="0.08"/>
    </pattern>
  </defs>
  <rect width="1200" height="630" fill="url(#bg)"/>
  <rect width="1200" height="630" fill="url(#dots)"/>
  <rect width="1200" height="630" fill="url(#glow)"/>
  <circle cx="1050" cy="120" r="160" fill="#ffffff" fill-opacity="0.06"/>
  <circle cx="150" cy="560" r="180" fill="#ffffff" fill-opacity="0.05"/>
  <circle cx="600" cy="315" r="250" fill="none" stroke="#ffffff" stroke-opacity="0.06" stroke-width="2"/>
  <circle cx="600" cy="315" r="190" fill="none" stroke="#ffffff" stroke-opacity="0.10" stroke-width="2"/>
  <rect x="490" y="205" width="220" height="220" rx="52" fill="#ffffff" fill-opacity="0.13" stroke="#ffffff" stroke-opacity="0.16" stroke-width="2"/>
  <g transform="translate(600,315)" stroke="#ffffff" stroke-width="9" fill="none" stroke-linecap="round" stroke-linejoin="round">
    <rect x="-48" y="-38" width="96" height="82" rx="10"/>
    <path d="M-48 -12 h96 M-24 -38 v-16 M24 -38 v-16"/>
    <path d="M-28 8 h14 M-2 8 h14 M22 8 h14 M-28 26 h14 M-2 26 h14"/>
  </g>
</svg>
